<svg width="91" height="25" viewBox="0 0 91 25" fill="none" xmlns="http://www.w3.org/2000/svg">
<g clip-path="url(#clip0_28082_2596)">
<path d="M21.8858 2.95715L21.4286 2.7857C18.1714 1.24284 14.5715 0.5 10.9715 0.5C7.31431 0.5 3.77144 1.24284 0.457149 2.7857L0 3.01427V3.75716C0 11.8143 3.88573 19.4143 10.4571 24.1572L10.9143 24.5L11.3714 24.1572C17.9429 19.4143 21.8286 11.8714 21.8286 3.75716L21.8858 2.95715ZM10.9715 22.4429V2.04285C14.1715 2.04285 17.3715 2.67145 20.3429 3.98573C20.2857 11.2429 16.8 18.1 10.9715 22.4429Z" fill="#0A0A0A"/>
<path d="M29.429 5.92859H31.4861V18.6715H29.429V5.92859Z" fill="#0A0A0A"/>
<path d="M37.6576 5.92859C41.3146 5.92859 44.4003 8.50003 44.4003 12.3286C44.4003 16.1572 41.3146 18.7286 37.6576 18.7286H33.2575V5.92859H37.6576ZM37.6576 16.7286C40.2288 16.7286 42.3433 15.0143 42.3433 12.3286C42.3433 9.64286 40.1717 7.87147 37.6576 7.87147H35.3719V16.6715L37.6576 16.7286Z" fill="#0A0A0A"/>
<path d="M49.2001 16.9C50.1713 16.9 51.9429 16.5 51.9429 15.2429C51.9429 12.5 45.1428 13.8715 45.1428 9.30004C45.1428 6.67143 47.7714 5.70001 50.0001 5.70001C51.3142 5.75718 52.5716 6.04287 53.7716 6.61431L53.0287 8.44287C52.0571 7.98576 51.0288 7.75718 50.0001 7.70002C48.9143 7.70002 47.2573 7.92859 47.2573 9.35717C47.2002 12.1572 53.9999 10.7286 53.9999 15.3C53.9999 17.8715 51.3717 18.9572 49.143 18.9572C47.7143 18.9 46.3431 18.5 45.0857 17.9286L45.8857 16.1C46.9715 16.5572 48.0572 16.8429 49.2001 16.9Z" fill="#0A0A0A"/>
<path d="M57.314 11.0715C57.7711 9.98573 58.8569 9.30004 59.9997 9.35717C62.3997 9.35717 63.3142 11.4143 63.3142 13.5286V18.6715H61.3139V13.5858C61.3139 12.2715 60.6855 11.2429 59.3139 11.2429C57.9427 11.2429 57.314 12.2715 57.314 13.5858V18.7286H55.3141V5.92859H57.314V11.0715Z" fill="#0A0A0A"/>
<path d="M64.5145 5.92859H66.5719V8.21429H64.572L64.5145 5.92859ZM64.5145 9.58574H66.5719V18.7286H64.572L64.5145 9.58574Z" fill="#0A0A0A"/>
<path d="M67.5432 14.1571C67.5432 11.5857 69.6573 9.47138 72.2288 9.47138C74.8004 9.47138 76.9145 11.5857 76.9145 14.1571C76.9145 14.4428 76.9145 14.7857 76.8574 15.0714H69.6002C69.886 16.3285 71.0289 17.1857 72.2859 17.1285C73.2575 17.1285 74.1717 16.7285 74.8004 15.9857L76.1716 17.1857C73.2004 20.4428 67.5432 18.7285 67.5432 14.1571ZM74.8004 13.3571C74.1146 10.6142 70.1147 10.6142 69.6002 13.3571H74.8004Z" fill="#0A0A0A"/>
<path d="M78.0003 5.92859H80.0002V18.6715H78.0003V5.92859Z" fill="#0A0A0A"/>
<path d="M85.2 18.8428C82.6285 18.7857 80.6285 16.6714 80.6856 14.1571C80.6856 14.1571 80.6856 14.1571 80.6856 14.1C80.6856 11.6428 82.6285 9.35709 85.2 9.35709C86.4 9.35709 87.5428 9.92852 88.2286 10.9571V5.87139H90.2286V18.6142H88.2286V17.1857C87.5428 18.2714 86.4 18.9 85.2 18.8428ZM85.4858 17.0143C87.0287 17.0143 88.2857 15.8143 88.2857 14.2714C88.2857 14.2142 88.2857 14.2142 88.2857 14.1571C88.2857 12.6143 87.0858 11.3 85.4858 11.3C83.8859 11.3 82.6285 12.5571 82.6285 14.1571C82.6285 15.7571 83.8859 17.0143 85.4858 17.0143Z" fill="#0A0A0A"/>
</g>
<defs>
<clipPath id="clip0_28082_2596">
<rect width="91" height="25" fill="white"/>
</clipPath>
</defs>
</svg>
