<svg width="120" height="24" viewBox="0 0 120 24" fill="none" xmlns="http://www.w3.org/2000/svg">
<g clip-path="url(#clip0_27873_2450)">
<path d="M21.8682 2.52029L21.4102 2.29117C18.0899 0.74463 14.5979 0 10.9341 0C7.27034 0 3.72102 0.80191 0.457976 2.29117L0 2.52029V3.26492C0 11.3413 3.95001 18.9594 10.4761 23.6564L10.9341 24L11.3921 23.6564C17.9182 18.9594 21.8682 11.3413 21.8682 3.26492V2.52029ZM10.9341 22.0525V1.54654C14.1972 1.60382 17.3457 2.23389 20.3225 3.55131C20.208 10.8258 16.716 17.6993 10.9341 22.0525Z" fill="#8231D4"/>
<path d="M35.6646 16.2669H31.5428V5.44116H29.4819V18.2144H37.0385C36.466 17.699 36.008 17.0116 35.6646 16.2669Z" fill="#8231D4"/>
<path d="M36.6947 13.6897C36.6947 11.0549 38.7556 8.93558 41.3889 8.93558C44.0223 8.93558 46.0831 11.0549 46.0831 13.6897C46.0831 13.9761 46.0831 14.3198 46.0258 14.6062H38.7556C39.0418 15.8664 40.1867 16.611 41.4461 16.611C42.4193 16.611 43.3353 16.21 43.965 15.4654L45.3389 16.6682C42.3621 19.9905 36.6947 18.3294 36.6947 13.6897ZM43.965 12.8879C43.2781 10.1384 39.2708 10.1384 38.7556 12.8879H43.965Z" fill="#8231D4"/>
<path d="M51.3498 18.444C48.7737 18.444 46.8273 16.2674 46.8273 13.7471C46.8273 11.2841 48.7737 8.99292 51.3498 8.99292C52.6092 8.99292 53.6397 9.56571 54.3839 10.5968V9.1648H56.3875V17.2412C56.3875 20.277 54.8418 22.2818 51.6933 22.2818C49.6896 22.2818 48.0867 21.308 47.1708 19.5323L48.8882 18.6158C49.4034 19.7614 50.4339 20.3915 51.6933 20.3915C53.6969 20.3915 54.3839 19.0168 54.4411 17.1839V16.7829C53.6397 17.8712 52.6092 18.444 51.3498 18.444ZM51.636 16.5538C53.2389 16.5538 54.4411 15.2936 54.4411 13.6899C54.4411 12.086 53.2389 10.8259 51.636 10.8259C50.0331 10.8259 48.8309 12.1433 48.8309 13.6899C48.8309 15.2936 50.0331 16.5538 51.636 16.5538Z" fill="#8231D4"/>
<path d="M61.8837 18.444C59.3076 18.444 57.3613 16.2674 57.3613 13.7471C57.3613 11.2841 59.3076 8.99292 61.8837 8.99292C63.1432 8.99292 64.1735 9.56571 64.9179 10.5968V9.1648H66.9212V18.2722H64.9179V16.8402C64.1735 17.8712 63.1432 18.444 61.8837 18.444ZM62.2272 16.5538C63.8303 16.5538 65.0325 15.2936 65.0325 13.6899C65.0325 12.086 63.8303 10.8259 62.2272 10.8259C60.6243 10.8259 59.4221 12.1433 59.4221 13.6899C59.3648 15.2936 60.6243 16.5538 62.2272 16.5538Z" fill="#8231D4"/>
<path d="M68.8105 5.44116H70.8137V18.2144H68.8105V5.44116Z" fill="#8231D4"/>
<path d="M76.5962 16.4964C77.5692 16.4964 79.3439 16.0955 79.3439 14.8353C79.3439 12.0858 72.5317 13.4606 72.5317 8.87824C72.5317 6.24337 75.1074 5.26967 77.3973 5.26967C78.5995 5.26967 80.0309 5.67058 81.1758 6.1861L80.4314 8.01902C79.5158 7.61811 78.4282 7.27441 77.3973 7.27441C76.3097 7.27441 74.6496 7.5035 74.6496 8.93552C74.6496 11.7422 81.4617 10.3102 81.4617 14.8925C81.4617 17.4701 78.8287 18.5012 76.5962 18.5012C75.2221 18.5012 73.7913 17.9857 72.5317 17.4701L73.3328 15.6372C74.3064 16.0381 75.5653 16.4964 76.5962 16.4964Z" fill="#8231D4"/>
<path d="M84.8398 10.6536C85.2976 9.50798 86.3279 8.93519 87.5301 8.93519C89.9346 8.93519 90.7929 10.9973 90.7929 13.1166V18.2144H88.9043V13.1166C88.9043 11.7992 88.2745 10.7681 86.9004 10.7681C85.5262 10.7681 84.8965 11.7992 84.8965 13.1166V18.2144H82.8932V5.44116H84.8965V10.6536H84.8398Z" fill="#8231D4"/>
<path d="M92.6249 5.44116H94.6288V7.73233H92.6249V5.44116ZM92.6249 9.10707H94.6288V18.2144H92.6249V9.10707Z" fill="#8231D4"/>
<path d="M96.0023 13.6897C96.0023 11.0549 98.0629 8.93558 100.697 8.93558C103.33 8.93558 105.391 11.0549 105.391 13.6897C105.391 13.9761 105.391 14.3198 105.334 14.6062H98.0629C98.3494 15.8664 99.4943 16.611 100.754 16.611C101.727 16.611 102.643 16.21 103.272 15.4654L104.646 16.6682C101.67 19.9905 96.0023 18.3294 96.0023 13.6897ZM103.33 12.8879C102.643 10.1384 98.6353 10.1384 98.1202 12.8879H103.33Z" fill="#8231D4"/>
<path d="M106.592 5.44116H108.596V18.2144H106.592V5.44116Z" fill="#8231D4"/>
<path d="M114.092 18.4434C111.516 18.4434 109.57 16.2668 109.57 13.7464C109.57 11.2834 111.516 8.99227 114.092 8.99227C115.352 8.99227 116.382 9.56506 117.126 10.5961V5.49824H119.13V18.2715H117.126V16.8395C116.382 17.8706 115.352 18.4434 114.092 18.4434ZM114.435 16.5531C116.039 16.5531 117.241 15.293 117.241 13.6892C117.241 12.0854 116.039 10.8252 114.435 10.8252C112.833 10.8252 111.631 12.1427 111.631 13.6892C111.573 15.293 112.833 16.5531 114.435 16.5531Z" fill="#8231D4"/>
</g>
<defs>
<clipPath id="clip0_27873_2450">
<rect width="120" height="24" fill="white"/>
</clipPath>
</defs>
</svg>
